<svg width="3728" height="602" viewBox="0 0 3728 602" fill="none" xmlns="http://www.w3.org/2000/svg">
<path d="M353.515 0C355.726 1.4181 472.089 201.287 484.43 224.091C475.03 220.225 461.614 216.46 451.585 213.323L395.28 195.728C384.237 178.458 373.998 160.302 363.165 142.863C358.039 134.596 352.764 125.863 348.091 117.337C335.216 137.643 321.33 162.822 308.983 183.801L230.918 316.444C237.94 350.254 245.257 387.197 253.389 420.577C272 414.525 293.116 410.44 311.554 403.989L300.287 348.333C305.29 337.811 311.509 320.212 315.88 308.831L344.744 233.378C402.394 249.669 462.324 267.699 519.853 284.949C527.19 295.704 538.071 315.801 544.887 327.53L590.007 404.861C627.83 470.093 667.485 535.993 704.463 601.529C676.635 600.4 641.781 601.34 613.486 601.353L454.114 601.421C471.724 581.796 489.164 562.022 506.449 542.113L593.922 541.769C587.904 530.34 579.437 517.139 572.715 505.893L537.165 446.004C515.45 409.642 493.107 369.649 470.797 334.335C460.058 330.893 447.541 327.855 436.525 324.967C418.638 319.929 400.717 315.02 382.756 310.243C377.927 322.625 370.881 337.026 365.552 349.618C407.547 391.877 450.854 433.913 492.302 476.578L372.632 601.414C358.749 600.947 342.667 601.367 328.624 601.374L240.914 601.387L0 601.38C13.3181 577.529 28.1017 553.278 41.9737 529.63L122.833 392.148C126.311 419.103 131.841 448.811 136.478 475.624C125.571 494.796 111.883 521.799 102.19 541.802C183.769 540.382 267.687 541.654 349.45 541.64C356.51 534.668 364.409 525.586 371.246 518.147L409.657 476.645C397.079 462.667 383.865 449.46 371.253 435.245C317.562 451.732 261.858 468.246 208.555 485.572C207.253 480.967 206.309 475.577 205.369 470.857C194.58 416.669 182.468 362.643 172.015 308.394C190.823 277.823 208.957 245.658 227.243 214.675L353.515 0Z" fill="white"/>
<path d="M997.155 122.556C1005.75 130.037 1033.96 187.749 1040.57 200.763L895.149 478.973L860.399 478.578L811.304 478.664C834.384 432.57 860.279 385.851 884.096 339.878C921.249 267.16 958.936 194.718 997.155 122.556Z" fill="white"/>
<path d="M1072.24 264.222C1079.47 268.129 1177.9 458.178 1187.69 478.932C1162.58 478.222 1134.48 478.839 1109.15 478.874L1104.55 478.534C1096.71 471.754 1076.04 429.997 1069.63 417.663C1044.37 417.676 1019.11 417.386 993.851 416.792C1014.21 373.78 1049.23 305.155 1072.24 264.222Z" fill="white"/>
<path d="M1339.88 123.937C1362.81 121.981 1401.18 123.157 1425.01 123.176L1582.58 123.357C1569.2 145.772 1555.66 171.085 1542.8 194.014C1476.85 193.883 1410.91 194.089 1344.96 194.636C1313.24 213.366 1309.12 253.806 1344.17 261.848C1385.71 271.376 1442.65 260.831 1486.72 265.768C1503.15 267.529 1519.02 272.763 1533.28 281.126C1606.62 324.693 1601.77 436.391 1521.82 469.98C1511.44 474.343 1502.68 476.308 1491.71 478.678L1247.04 478.721C1256.37 457.725 1272.84 428.632 1284.13 408.378C1351.42 406.743 1422.44 410.195 1489.16 407.373C1511.28 391.749 1522.05 375.707 1505.9 350.437C1503.85 347.233 1497.29 340.797 1493.64 339.741C1433.48 321.9 1355.04 351.674 1298.4 319.629C1238.57 285.778 1229.43 197.868 1281.19 152.561C1300.86 135.345 1315.81 129.705 1339.88 123.937Z" fill="white"/>
<path d="M1807.5 123.807C1818.75 121.996 1856.6 122.699 1870.04 122.73L1994.13 123.117L1953.61 193.555C1889.64 194.767 1798.97 180.588 1752.86 222.292C1731.63 241.581 1719.23 268.719 1718.53 297.392C1717.58 325.969 1728.18 352.186 1747.79 372.864C1761.81 387.752 1779.68 398.45 1799.43 403.766C1825.86 410.827 1933.2 407.361 1968.53 408C1975.71 412.367 2005.85 468.038 2011.77 478.481L1881.26 478.749C1851.48 478.797 1812.99 480.347 1784.64 474.227C1760.53 468.778 1737.75 458.572 1717.64 444.206C1679.68 417.121 1654.16 375.95 1646.8 329.906C1639.3 283.258 1650.75 235.545 1678.6 197.376C1710.7 153.405 1754.91 131.948 1807.5 123.807Z" fill="white"/>
<path d="M2172 271.454C2182.6 270.033 2213.18 270.609 2225 270.65L2322.01 271.114C2310.03 293.734 2296.57 316.653 2283.9 338.97C2254.16 338.107 2223.39 338.21 2193.64 338.329C2180.57 338.38 2165.33 343.027 2156.53 353.199C2142.1 369.86 2144.52 388.353 2145.65 408.548L2325.9 408.739C2328.07 411.627 2333.58 421.271 2335.75 424.832C2345.75 442.403 2355.38 460.193 2364.61 478.19C2269.9 476.158 2167.44 478.325 2072.1 478.414C2071.64 387.405 2055.73 294.863 2172 271.454Z" fill="white"/>
<path d="M2179.57 123.33C2241.31 122.947 2303.05 123.078 2364.81 123.721L2325.99 193.662L2225.12 193.864C2189.02 193.273 2158.38 186.65 2145.21 227.903L2071.6 227.944C2086.16 165.309 2115.08 135.451 2179.57 123.33Z" fill="white"/>
<path d="M2424.63 122.088C2451.25 134.842 2635.07 332.217 2665.75 364.01C2668.01 284.868 2665.8 203.145 2666.96 123.494L2740.29 123.576C2740.89 161.461 2740.39 200.68 2740.44 238.675L2740.39 479.37C2720.07 478.772 2698.44 479.293 2678.01 479.441C2592.36 396.367 2509.66 303.312 2424.33 218.958C2424.24 186.668 2424.33 154.378 2424.63 122.088Z" fill="white"/>
<path d="M2424.71 292.505C2433.08 297.345 2487.74 355.862 2499.07 367.59C2499.48 404.518 2498.98 442.352 2498.94 479.358L2424.41 479.04C2424 416.862 2424.11 354.681 2424.71 292.505Z" fill="white"/>
<path d="M2962.05 124.159C3004.46 120.172 3102.73 123.189 3148.1 123.329C3134.38 146.775 3120.9 170.367 3107.7 194.102C3075.61 194.008 2978.93 191.421 2953.15 198.012C2935.13 202.749 2918.64 212.078 2905.28 225.087C2884.38 245.66 2873.67 272.813 2873.71 302.048C2873.61 330.278 2884.9 357.362 2905.02 377.156C2918.25 390.36 2934.68 399.899 2952.7 404.836C2975.43 410.851 3091.1 408.253 3121.07 408.193L3122.39 408.304C3129.89 411.977 3159.37 468.225 3165.35 479.011C3119.98 477.915 3072.45 479.953 3026.89 479.289C2997.51 478.861 2967.82 481.093 2938.89 474.958C2914.4 469.739 2891.28 459.374 2871.09 444.549C2834.1 417.235 2809.38 376.427 2802.3 330.99C2785.89 223.369 2856.81 139.592 2962.05 124.159Z" fill="white"/>
<path d="M3225.22 123.192C3249.33 122.695 3274.36 122.902 3298.55 122.775L3298.46 478.618C3273.86 478.309 3249.28 478.354 3224.71 478.754L3225.22 123.192Z" fill="white"/>
<path d="M3508.47 122.766C3515.14 121.938 3519.83 120.56 3525.7 123.394C3527.78 139.066 3526.56 173.238 3526.41 190.321C3510.54 193.527 3501.18 195.626 3486.69 203.922C3459.85 218.942 3440.24 244.162 3432.26 273.857C3407.47 369.093 3520.06 443.423 3602.92 392.44C3627.84 376.97 3645.58 352.195 3652.16 323.608C3658.57 295.29 3653.17 265.58 3637.19 241.332C3617 210.341 3591.89 197.991 3557.44 190.592L3558.49 121.188C3611.99 125.717 3647.56 144.804 3683.49 184.091C3702.57 206.242 3716.05 232.647 3722.82 261.088C3733.29 305.627 3726.43 354.139 3702.09 393.128C3676.44 434.667 3635.26 464.258 3587.71 475.339C3539.31 486.298 3485.14 479.462 3442.76 452.739C3402.24 427.394 3373.45 387.036 3362.63 340.499C3351.62 293.485 3360.03 244.014 3385.99 203.292C3415.38 157.355 3456.37 134.08 3508.47 122.766Z" fill="white"/>
</svg>
