<svg xmlns="http://www.w3.org/2000/svg" viewBox="-28 -79 760 760"><path d="M353.515 0C355.726 1.4181 472.089 201.287 484.43 224.091C475.03 220.225 461.614 216.46 451.585 213.323L395.28 195.728C384.237 178.458 373.998 160.302 363.165 142.863C358.039 134.596 352.764 125.863 348.091 117.337C335.216 137.643 321.33 162.822 308.983 183.801L230.918 316.444C237.94 350.254 245.257 387.197 253.389 420.577C272 414.525 293.116 410.44 311.554 403.989L300.287 348.333C305.29 337.811 311.509 320.212 315.88 308.831L344.744 233.378C402.394 249.669 462.324 267.699 519.853 284.949C527.19 295.704 538.071 315.801 544.887 327.53L590.007 404.861C627.83 470.093 667.485 535.993 704.463 601.529C676.635 600.4 641.781 601.34 613.486 601.353L454.114 601.421C471.724 581.796 489.164 562.022 506.449 542.113L593.922 541.769C587.904 530.34 579.437 517.139 572.715 505.893L537.165 446.004C515.45 409.642 493.107 369.649 470.797 334.335C460.058 330.893 447.541 327.855 436.525 324.967C418.638 319.929 400.717 315.02 382.756 310.243C377.927 322.625 370.881 337.026 365.552 349.618C407.547 391.877 450.854 433.913 492.302 476.578L372.632 601.414C358.749 600.947 342.667 601.367 328.624 601.374L240.914 601.387L0 601.38C13.3181 577.529 28.1017 553.278 41.9737 529.63L122.833 392.148C126.311 419.103 131.841 448.811 136.478 475.624C125.571 494.796 111.883 521.799 102.19 541.802C183.769 540.382 267.687 541.654 349.45 541.64C356.51 534.668 364.409 525.586 371.246 518.147L409.657 476.645C397.079 462.667 383.865 449.46 371.253 435.245C317.562 451.732 261.858 468.246 208.555 485.572C207.253 480.967 206.309 475.577 205.369 470.857C194.58 416.669 182.468 362.643 172.015 308.394C190.823 277.823 208.957 245.658 227.243 214.675L353.515 0Z" fill="#0f62fe"/></svg>
